<?xml version="1.0" encoding="utf-8"?>
<!-- Generator: Adobe Illustrator 23.0.2, SVG Export Plug-In . SVG Version: 6.00 Build 0)  -->
<svg version="1.1" id="Layer_1" xmlns="http://www.w3.org/2000/svg" xmlns:xlink="http://www.w3.org/1999/xlink" x="0px" y="0px"
	 viewBox="0 0 56.7 56.7" style="enable-background:new 0 0 56.7 56.7;" xml:space="preserve">
<style type="text/css">
	.st0{fill:#009385;}
	.st1{fill:#FFFFFF;}
</style>
<g>
	<path class="st0" d="M29.8,3.8c-13.6,0-24.6,11-24.6,24.6C5.2,42,16.2,53,29.8,53c13.6,0,24.6-11,24.6-24.6
		C54.4,14.8,43.4,3.8,29.8,3.8z"/>
	<g>
		<path class="st1" d="M36.2,23.8c-2.9,0-4.2,1.6-4.9,2.7v0.1h0c0,0,0,0,0-0.1v-2.3h-5.5c0.1,1.5,0,16.4,0,16.4h5.5v-9.2
			c0-0.5,0-1,0.2-1.3c0.4-1,1.3-2,2.8-2c2,0,2.8,1.5,2.8,3.7v8.8h5.5v-9.4C42.5,26.1,39.8,23.8,36.2,23.8z"/>
		<path class="st1" d="M20.2,16.2c-1.9,0-3.1,1.2-3.1,2.8c0,1.6,1.2,2.8,3,2.8h0c1.9,0,3.1-1.3,3.1-2.8C23.2,17.5,22,16.2,20.2,16.2
			z"/>
		<rect x="17.4" y="24.2" class="st1" width="5.5" height="16.4"/>
	</g>
</g>
</svg>
