<?xml version="1.0" encoding="utf-8"?>
<!-- Generator: Adobe Illustrator 23.0.2, SVG Export Plug-In . SVG Version: 6.00 Build 0)  -->
<svg version="1.1" id="Layer_1" xmlns="http://www.w3.org/2000/svg" xmlns:xlink="http://www.w3.org/1999/xlink" x="0px" y="0px"
	 viewBox="0 0 100 86.8" style="enable-background:new 0 0 100 86.8;" xml:space="preserve">
<style type="text/css">
	.st0{fill:#009385;}
</style>
<path class="st0" d="M92.3,33.2C92.3,33.2,92.3,33.2,92.3,33.2L92.3,33.2C92.3,33.2,92.3,33.2,92.3,33.2c0-0.1,0-0.1,0-0.2
	c0-0.1,0-0.1,0-0.2c0,0,0,0,0,0c0-0.1,0-0.1,0-0.2c0-0.1,0-0.1-0.1-0.2c0,0,0,0,0,0c0-0.1-0.1-0.1-0.1-0.2c0,0,0-0.1-0.1-0.1
	c0,0,0,0,0,0c0,0,0,0,0,0c0-0.1-0.1-0.1-0.1-0.2c0,0-0.1-0.1-0.1-0.1c0,0,0,0,0,0c0,0-0.1-0.1-0.1-0.1c-0.1,0-0.1-0.1-0.2-0.1
	c0,0,0,0,0,0l0,0c0,0,0,0,0,0l-8.2-5.5v-11c0-1-0.8-1.8-1.8-1.8H64L51,4.7c-0.6-0.4-1.4-0.4-2,0l-13,8.7H18.5c-1,0-1.8,0.8-1.8,1.8
	v11l-8.2,5.5c0,0,0,0,0,0c-0.1,0-0.1,0.1-0.1,0.1c0,0-0.1,0.1-0.1,0.1c0,0,0,0,0,0c0,0-0.1,0.1-0.1,0.1c0,0.1-0.1,0.1-0.1,0.2l0,0v0
	c0,0,0,0.1-0.1,0.1c0,0.1-0.1,0.1-0.1,0.2c0,0,0,0,0,0c0,0,0,0.1,0,0.1c0,0.1,0,0.1-0.1,0.2c0,0,0,0,0,0c0,0.1,0,0.1,0,0.2
	c0,0.1,0,0.1,0,0.2c0,0,0,0,0,0v45c0,0,0,0,0,0c0,0,0,0,0,0c0,0.2,0,0.3,0.1,0.5c0,0,0,0,0,0.1c0,0,0,0,0,0C7.9,79,7.9,79.1,8,79.2
	c0,0,0,0,0.1,0.1c0.1,0.1,0.2,0.2,0.3,0.3c0,0,0,0,0.1,0c0.1,0.1,0.3,0.2,0.4,0.2c0,0,0.1,0,0.1,0C9.2,80,9.3,80,9.5,80h81
	c0.2,0,0.3,0,0.5-0.1c0,0,0.1,0,0.1,0c0.2-0.1,0.3-0.1,0.4-0.2c0,0,0,0,0.1,0c0.1-0.1,0.2-0.2,0.3-0.3c0,0,0,0,0.1-0.1
	c0.1-0.1,0.2-0.3,0.2-0.4c0,0,0,0,0,0c0,0,0,0,0-0.1c0-0.2,0.1-0.3,0.1-0.5c0,0,0,0,0,0c0,0,0,0,0,0L92.3,33.2L92.3,33.2z M82.1,41
	c0.3-0.1,0.5-0.3,0.7-0.5l5.9-3.9v38L61.9,54.5L82.1,41z M87.3,33.2l-4,2.6v-5.3L87.3,33.2z M50,8.4l7.6,5H42.4L50,8.4z M36.5,17h27
	h16.2v21.2l-5.4,3.6c-0.2-0.8-0.9-1.5-1.8-1.5h-36c-1,0-1.8,0.8-1.8,1.8s0.8,1.8,1.8,1.8h34.6l-12.9,8.6H41.8L20.3,38.2v-11
	c0,0,0,0,0,0V17H36.5z M11.3,36.6l26.9,17.9L11.3,74.6V36.6z M16.7,35.8l-4-2.6l4-2.6V35.8z M14.9,76.4l27-20.2h16.3l27,20.2H14.9z"
	/>
<path class="st0" d="M27.5,26h18c1,0,1.8-0.8,1.8-1.8s-0.8-1.8-1.8-1.8h-18c-1,0-1.8,0.8-1.8,1.8S26.5,26,27.5,26z"/>
<path class="st0" d="M34.7,33.2c0,1,0.8,1.8,1.8,1.8h36c1,0,1.8-0.8,1.8-1.8s-0.8-1.8-1.8-1.8h-36C35.5,31.4,34.7,32.2,34.7,33.2z"
	/>
</svg>
